<mxfile host="app.diagrams.net" modified="2023-10-02T18:26:14.878Z" agent="Mozilla/5.0 (Windows NT 10.0; Win64; x64) AppleWebKit/537.36 (KHTML, like Gecko) Chrome/116.0.5845.2271 YaBrowser/23.9.0.2271 Yowser/2.5 Safari/537.36" version="22.0.1" etag="ni9vw6_WDKY1lcWdjdUY" type="github">
  <diagram name="Страница — 1" id="S0fHAdIMD5DgLy022KXi">
    <mxGraphModel>
      <root>
        <mxCell id="0" />
        <mxCell id="1" parent="0" />
      </root>
    </mxGraphModel>
  </diagram>
</mxfile>
